<svg xmlns="http://www.w3.org/2000/svg" viewBox="0 0 16 16"><path d="M8.13,.88h-.25C3.98,.94,.94,3.98,.87,7.88v.25c.06,3.89,3.11,6.94,7,7h.26c3.89-.06,6.94-3.11,7-7v-.25c-.06-3.9-3.11-6.94-7-7Zm-1.24,10.26h2.1c1.04,0,2,.57,2.58,1.53-.99,.76-2.2,1.22-3.58,1.22s-2.65-.48-3.65-1.28c.58-.92,1.53-1.47,2.55-1.47Zm5.64,.62c-.77-1.11-1.97-1.79-3.3-1.86v-.02h-2.46c-1.33,.04-2.53,.69-3.35,1.81-.81-1.01-1.3-2.3-1.3-3.69,0-3.24,2.64-5.87,5.88-5.87s5.88,2.64,5.88,5.88c0,1.43-.51,2.73-1.35,3.75Z"/><path d="M8.13,2.88h-.25c-1.68,.06-2.94,1.32-3,3v.25c.06,1.68,1.32,2.94,3,3h.25c1.68-.06,2.94-1.32,3-3v-.25c-.06-1.68-1.32-2.94-3-3Zm-.12,5.01c-1.04,0-1.88-.85-1.88-1.88s.84-1.88,1.88-1.88,1.88,.84,1.88,1.88-.84,1.88-1.88,1.88Z"/></svg>