<svg xmlns="http://www.w3.org/2000/svg" viewBox="0 0 512 512"><path d="M256,0C397.4,0,512,114.6,512,256s-114.6,256-256,256S0,397.4,0,256,114.6,0,256,0Zm0,480c16.7,0,40.4-14.4,61.9-57.3,9.9-19.8,18.2-44.6,23.2-70.7H170c5.9,26.1,14.2,50.9,24.1,70.7,21.5,42.9,45.2,57.3,61.9,57.3h0Zm-91.7-160h183.4c2.8-20.2,4.3-41.7,4.3-64s-1.5-43.8-4.3-64H164.3c-2.8,20.2-4.3,41.7-4.3,64s1.5,43.8,4.3,64h0Zm176.8-160c-5-27-13.3-50.9-23.2-70.71-21.5-42.92-45.2-57.29-61.9-57.29s-40.4,14.37-61.9,57.29c-9.9,19.81-18.2,43.71-24.1,70.71h171.1Zm38,32c3.5,20.5,4.9,41.9,4.9,64s-1.4,43.5-4.9,64h91.6c6.1-20.3,9.3-41.8,9.3-64s-3.2-43.7-9.3-64h-91.6Zm-51.6-148.34c21,28.33,37.6,68.74,47.2,116.34h83.7c-25.8-54.5-73.1-96.88-130.9-116.34h0Zm-143,0c-57.8,19.46-105.06,61.84-130.94,116.34h83.74c9.6-47.6,26.2-88.01,47.2-116.34h0ZM32,256c0,22.2,3.24,43.7,9.28,64h90.72c-2.6-20.5-4-41.9-4-64s1.4-43.5,4-64H41.28c-6.04,20.3-9.28,41.8-9.28,64h0Zm426.4,96h-83.7c-9.6,47.6-26.2,88-47.2,116.3,57.8-19.4,105.1-61.8,130.9-116.3Zm-321.1,0H53.56c25.88,54.5,73.14,96.9,130.94,116.3-21-28.3-37.6-68.7-47.2-116.3h0Z"/></svg>