<svg xmlns="http://www.w3.org/2000/svg" viewBox="0 0 181 161"> <path d="M72.89,160.92V84.16H39.43c0-12.29,2.37-22.6,7.1-30.9,4.73-8.64,13.52-15.12,26.36-19.44V.92c-10.48,1.33-20.28,4.49-29.4,9.47-8.79,4.65-16.39,10.63-22.81,17.94-6.42,7.31-11.49,15.78-15.21,25.42C2.09,63.39,.57,73.69,.91,84.66v76.26H72.89Zm107.97,0V84.16h-33.46c0-12.29,2.37-22.6,7.1-30.9,4.73-8.64,13.52-15.12,26.36-19.44V.92c-10.48,1.33-20.28,4.49-29.4,9.47-8.79,4.65-16.39,10.63-22.81,17.94-6.42,7.31-11.49,15.78-15.21,25.42-3.38,9.64-4.9,19.94-4.56,30.9v76.26h71.98Z" fill="#FFFFFF"/> </svg>