<svg xmlns="http://www.w3.org/2000/svg" viewBox="0 0 16 16"><path fill="#ffffff" d="M3.88,.88V6.17c-1.08,.62-1.8,1.77-1.8,3.13,0,.73,.21,1.4,.57,1.97l-1.59,1.59,.88,.88,1.56-1.56c.12,.09,.24,.17,.37,.25v2.7h7.22c2.49,0,4.03-2.4,4.03-4.62V.88H3.88Zm1.83,6.05c1.35,0,2.38,1.02,2.38,2.38s-1.02,2.38-2.38,2.38-2.38-1.02-2.38-2.38,1.02-2.38,2.38-2.38Zm8.17,3.58c0,1.63-1.12,3.38-2.78,3.38H5.12v-1.01c.19,.03,.38,.06,.58,.06,2.03,0,3.62-1.59,3.62-3.62s-1.59-3.62-3.62-3.62c-.2,0-.39,.03-.58,.06V2.13H13.88V10.5Z"/></svg>