<?xml version="1.0" encoding="UTF-8" standalone="no"?>
<!-- Creator: CorelDRAW -->

<svg
   xmlns:dc="http://purl.org/dc/elements/1.1/"
   xmlns:cc="http://creativecommons.org/ns#"
   xmlns:rdf="http://www.w3.org/1999/02/22-rdf-syntax-ns#"
   xmlns:svg="http://www.w3.org/2000/svg"
   xmlns="http://www.w3.org/2000/svg"
   xmlns:sodipodi="http://sodipodi.sourceforge.net/DTD/sodipodi-0.dtd"
   xmlns:inkscape="http://www.inkscape.org/namespaces/inkscape"
   xml:space="preserve"
   width="1350"
   height="900"
   style="fill-rule:evenodd"
   viewBox="0 0 1350 900"
   id="svg2"
   version="1.1"
   inkscape:version="0.48.4 r9939"
   sodipodi:docname="US_flag_46_stars.svg"><metadata
   id="metadata75"><rdf:RDF><cc:Work
       rdf:about=""><dc:format>image/svg+xml</dc:format><dc:type
         rdf:resource="http://purl.org/dc/dcmitype/StillImage" /></cc:Work></rdf:RDF></metadata><sodipodi:namedview
   pagecolor="#ffffff"
   bordercolor="#666666"
   borderopacity="1"
   objecttolerance="10"
   gridtolerance="10"
   guidetolerance="10"
   inkscape:pageopacity="0"
   inkscape:pageshadow="2"
   inkscape:window-width="1920"
   inkscape:window-height="1096"
   id="namedview73"
   showgrid="false"
   inkscape:zoom="0.17777892"
   inkscape:cx="2743.4113"
   inkscape:cy="-448.42704"
   inkscape:window-x="-8"
   inkscape:window-y="-8"
   inkscape:window-maximized="1"
   inkscape:current-layer="svg2"
   fit-margin-top="0"
   fit-margin-left="0"
   fit-margin-right="0"
   fit-margin-bottom="0" />
 <defs
   id="defs4">
  <style
   type="text/css"
   id="style6">
   
    .fil2 {fill:#002868}
    .fil0 {fill:#BF0A30}
    .fil1 {fill:white}
   
  </style>
 </defs>
 <g
   id="Layer_x0020_1"
   transform="translate(-3e-7,-1.71875e-6)">
  <metadata
   id="CorelCorpID_0Corel-Layer" />
  <polygon
   class="fil0"
   points="1710,899.999 0.0011811,899.999 0.0011811,0 1710,0 "
   id="polygon10"
   style="fill:#bf0a30" />
  <polygon
   class="fil1"
   points="-0.56811,761.538 1709.43,761.538 1709.43,830.769 -0.56811,830.769 "
   id="polygon12"
   transform="translate(0.5681103,0)"
   style="fill:#ffffff" />
  <polygon
   class="fil1"
   points="-0.56811,69.2315 1709.43,69.2315 1709.43,138.462 -0.56811,138.462 "
   id="polygon14"
   transform="translate(0.5681103,0)"
   style="fill:#ffffff" />
  <polygon
   class="fil1"
   points="-0.56811,207.692 1709.43,207.692 1709.43,276.924 -0.56811,276.924 "
   id="polygon16"
   transform="translate(0.5681103,0)"
   style="fill:#ffffff" />
  <polygon
   class="fil1"
   points="-0.56811,346.154 1709.43,346.154 1709.43,415.384 -0.56811,415.384 "
   id="polygon18"
   transform="translate(0.5681103,0)"
   style="fill:#ffffff" />
  <polygon
   class="fil1"
   points="-0.56811,484.616 1709.43,484.616 1709.43,553.846 -0.56811,553.846 "
   id="polygon20"
   transform="translate(0.5681103,0)"
   style="fill:#ffffff" />
  <polygon
   class="fil1"
   points="-0.56811,623.076 1709.43,623.076 1709.43,692.308 -0.56811,692.308 "
   id="polygon22"
   transform="translate(0.5681103,0)"
   style="fill:#ffffff" />
  <polygon
   class="fil2"
   points="684.058,0.0011811 0.284646,0.0011811 0.284646,484.616 684.058,484.616 "
   id="polygon24"
   style="fill:#002868" />
  <g
   id="_293563216">
   <polygon
   id="_301762496"
   class="fil1"
   points="605.275,80.9693 611.537,61.6878 595.137,49.7728 615.407,49.7728 621.672,30.4949 627.935,49.7728 648.206,49.7728 631.808,61.6878 638.07,80.9693 621.672,69.052 "
   style="fill:#ffffff" />
   <polygon
   id="_301762424"
   class="fil1"
   points="565.345,155.6 571.607,136.316 555.21,124.404 575.478,124.404 581.744,105.124 588.008,124.404 608.278,124.404 591.879,136.316 598.141,155.6 581.744,143.682 "
   style="fill:#ffffff" />
   <polygon
   id="_301762352"
   class="fil1"
   points="605.275,230.23 611.537,210.946 595.137,199.032 615.407,199.032 621.672,179.754 627.935,199.032 648.206,199.032 631.808,210.946 638.07,230.23 621.672,218.313 "
   style="fill:#ffffff" />
   <polygon
   id="_301762280"
   class="fil1"
   points="605.275,304.863 611.537,285.579 595.137,273.67 615.407,273.67 621.672,254.387 627.935,273.67 648.206,273.67 631.808,285.579 638.07,304.863 621.672,292.945 "
   style="fill:#ffffff" />
   <polygon
   id="_301762208"
   class="fil1"
   points="565.202,379.489 571.465,360.208 555.067,348.294 575.335,348.294 581.601,329.019 587.865,348.294 608.135,348.294 591.736,360.208 597.998,379.489 581.601,367.572 "
   style="fill:#ffffff" />
   <polygon
   id="_301762136"
   class="fil1"
   points="605.275,454.122 611.537,434.839 595.137,422.926 615.407,422.926 621.672,403.648 627.935,422.926 648.206,422.926 631.808,434.839 638.07,454.122 621.672,442.205 "
   style="fill:#ffffff" />
   <polygon
   id="_301762064"
   class="fil1"
   points="525.416,80.9693 531.678,61.6878 515.281,49.7728 535.551,49.7728 541.814,30.4949 548.079,49.7728 568.349,49.7728 551.952,61.6878 558.214,80.9693 541.814,69.052 "
   style="fill:#ffffff" />
   <polygon
   id="_301761992"
   class="fil1"
   points="485.487,155.6 491.751,136.316 475.351,124.404 495.621,124.404 501.886,105.124 508.15,124.404 528.42,124.404 512.022,136.316 518.284,155.6 501.886,143.682 "
   style="fill:#ffffff" />
   <polygon
   id="_301761920"
   class="fil1"
   points="525.416,230.23 531.678,210.946 515.281,199.032 535.551,199.032 541.814,179.754 548.079,199.032 568.349,199.032 551.952,210.946 558.214,230.23 541.814,218.313 "
   style="fill:#ffffff" />
   <polygon
   id="_301761848"
   class="fil1"
   points="525.416,304.863 531.678,285.579 515.281,273.67 535.551,273.67 541.814,254.387 548.079,273.67 568.349,273.67 551.952,285.579 558.214,304.863 541.814,292.945 "
   style="fill:#ffffff" />
   <polygon
   id="_293560168"
   class="fil1"
   points="485.346,379.489 491.608,360.208 475.208,348.294 495.478,348.294 501.743,329.019 508.009,348.294 528.278,348.294 511.879,360.208 518.141,379.489 501.743,367.572 "
   style="fill:#ffffff" />
   <polygon
   id="_293562880"
   class="fil1"
   points="525.416,454.122 531.678,434.839 515.281,422.926 535.551,422.926 541.814,403.648 548.079,422.926 568.349,422.926 551.952,434.839 558.214,454.122 541.814,442.205 "
   style="fill:#ffffff" />
   <polygon
   id="_293563072"
   class="fil1"
   points="445.559,80.9693 451.821,61.6878 435.424,49.7728 455.694,49.7728 461.957,30.4949 468.222,49.7728 488.492,49.7728 472.093,61.6878 478.355,80.9693 461.957,69.052 "
   style="fill:#ffffff" />
   <polygon
   id="_293565208"
   class="fil1"
   points="405.631,155.6 411.893,136.316 395.494,124.404 415.765,124.404 422.028,105.124 428.293,124.404 448.563,124.404 432.165,136.316 438.428,155.6 422.028,143.682 "
   style="fill:#ffffff" />
   <polygon
   id="_293565352"
   class="fil1"
   points="445.559,230.23 451.821,210.946 435.424,199.032 455.694,199.032 461.957,179.754 468.222,199.032 488.492,199.032 472.093,210.946 478.355,230.23 461.957,218.313 "
   style="fill:#ffffff" />
   <polygon
   id="_293565520"
   class="fil1"
   points="445.559,304.863 451.821,285.579 435.424,273.67 455.694,273.67 461.957,254.387 468.222,273.67 488.492,273.67 472.093,285.579 478.355,304.863 461.957,292.945 "
   style="fill:#ffffff" />
   <polygon
   id="_298821512"
   class="fil1"
   points="405.488,379.489 411.75,360.208 395.352,348.294 415.622,348.294 421.885,329.019 428.15,348.294 448.42,348.294 432.022,360.208 438.285,379.489 421.885,367.572 "
   style="fill:#ffffff" />
   <polygon
   id="_293567392"
   class="fil1"
   points="445.559,454.122 451.821,434.839 435.424,422.926 455.694,422.926 461.957,403.648 468.222,422.926 488.492,422.926 472.093,434.839 478.355,454.122 461.957,442.205 "
   style="fill:#ffffff" />
   <polygon
   id="_293567464"
   class="fil1"
   points="365.701,80.9693 371.963,61.6878 355.565,49.7728 375.835,49.7728 382.101,30.4949 388.364,49.7728 408.634,49.7728 392.236,61.6878 398.498,80.9693 382.101,69.052 "
   style="fill:#ffffff" />
   <polygon
   id="_293568520"
   class="fil1"
   points="325.773,155.6 332.035,136.316 315.638,124.404 335.907,124.404 342.171,105.124 348.436,124.404 368.705,124.404 352.307,136.316 358.57,155.6 342.171,143.682 "
   style="fill:#ffffff" />
   <polygon
   id="_293568544"
   class="fil1"
   points="365.701,230.23 371.963,210.946 355.565,199.032 375.835,199.032 382.101,179.754 388.364,199.032 408.634,199.032 392.236,210.946 398.498,230.23 382.101,218.313 "
   style="fill:#ffffff" />
   <polygon
   id="_293568496"
   class="fil1"
   points="365.701,304.863 371.963,285.579 355.565,273.67 375.835,273.67 382.101,254.387 388.364,273.67 408.634,273.67 392.236,285.579 398.498,304.863 382.101,292.945 "
   style="fill:#ffffff" />
   <polygon
   id="_293568568"
   class="fil1"
   points="325.63,379.489 331.892,360.208 315.495,348.294 335.765,348.294 342.028,329.019 348.293,348.294 368.562,348.294 352.165,360.208 358.428,379.489 342.028,367.572 "
   style="fill:#ffffff" />
   <polygon
   id="_293568592"
   class="fil1"
   points="365.701,454.122 371.963,434.839 355.565,422.926 375.835,422.926 382.101,403.648 388.364,422.926 408.634,422.926 392.236,434.839 398.498,454.122 382.101,442.205 "
   style="fill:#ffffff" />
   <polygon
   id="_293559832"
   class="fil1"
   points="285.844,80.9693 292.107,61.6878 275.708,49.7728 295.978,49.7728 302.242,30.4949 308.507,49.7728 328.778,49.7728 312.379,61.6878 318.641,80.9693 302.242,69.052 "
   style="fill:#ffffff" />
   <polygon
   id="_293568616"
   class="fil1"
   points="245.915,155.6 252.177,136.316 235.78,124.404 256.05,124.404 262.315,105.124 268.578,124.404 288.848,124.404 272.45,136.316 278.712,155.6 262.315,143.682 "
   style="fill:#ffffff" />
   <polygon
   id="_295823960"
   class="fil1"
   points="285.844,230.23 292.107,210.946 275.708,199.032 295.978,199.032 302.242,179.754 308.507,199.032 328.778,199.032 312.379,210.946 318.641,230.23 302.242,218.313 "
   style="fill:#ffffff" />
   <polygon
   id="_295822280"
   class="fil1"
   points="285.844,304.863 292.107,285.579 275.708,273.67 295.978,273.67 302.242,254.387 308.507,273.67 328.778,273.67 312.379,285.579 318.641,304.863 302.242,292.945 "
   style="fill:#ffffff" />
   <polygon
   id="_295822496"
   class="fil1"
   points="245.772,379.489 252.034,360.208 235.637,348.294 255.907,348.294 262.172,329.019 268.435,348.294 288.705,348.294 272.307,360.208 278.569,379.489 262.172,367.572 "
   style="fill:#ffffff" />
   <polygon
   id="_295822088"
   class="fil1"
   points="285.844,454.122 292.107,434.839 275.708,422.926 295.978,422.926 302.242,403.648 308.507,422.926 328.778,422.926 312.379,434.839 318.641,454.122 302.242,442.205 "
   style="fill:#ffffff" />
   <polygon
   id="_295822112"
   class="fil1"
   points="205.988,80.9693 212.25,61.6878 195.85,49.7728 216.12,49.7728 222.385,30.4949 228.648,49.7728 248.919,49.7728 232.521,61.6878 238.783,80.9693 222.385,69.052 "
   style="fill:#ffffff" />
   <polygon
   id="_295822256"
   class="fil1"
   points="166.058,155.6 172.32,136.316 155.922,124.404 176.192,124.404 182.458,105.124 188.721,124.404 208.991,124.404 192.592,136.316 198.855,155.6 182.458,143.682 "
   style="fill:#ffffff" />
   <polygon
   id="_293563168"
   class="fil1"
   points="205.988,230.23 212.25,210.946 195.85,199.032 216.12,199.032 222.385,179.754 228.648,199.032 248.919,199.032 232.521,210.946 238.783,230.23 222.385,218.313 "
   style="fill:#ffffff" />
   <polygon
   id="_295315536"
   class="fil1"
   points="205.988,304.863 212.25,285.579 195.85,273.67 216.12,273.67 222.385,254.387 228.648,273.67 248.919,273.67 232.521,285.579 238.783,304.863 222.385,292.945 "
   style="fill:#ffffff" />
   <polygon
   id="_256182008"
   class="fil1"
   points="165.915,379.489 172.178,360.208 155.779,348.294 176.049,348.294 182.315,329.019 188.578,348.294 208.848,348.294 192.45,360.208 198.712,379.489 182.315,367.572 "
   style="fill:#ffffff" />
   <polygon
   id="_256181936"
   class="fil1"
   points="205.988,454.122 212.25,434.839 195.85,422.926 216.12,422.926 222.385,403.648 228.648,422.926 248.919,422.926 232.521,434.839 238.783,454.122 222.385,442.205 "
   style="fill:#ffffff" />
   <polygon
   id="_256181864"
   class="fil1"
   points="126.129,80.9693 132.391,61.6878 115.994,49.7728 136.264,49.7728 142.528,30.4949 148.792,49.7728 169.062,49.7728 152.665,61.6878 158.927,80.9693 142.528,69.052 "
   style="fill:#ffffff" />
   <polygon
   id="_255587896"
   class="fil1"
   points="86.2016,155.6 92.4638,136.316 76.0642,124.404 96.3343,124.404 102.599,105.124 108.865,124.404 129.132,124.404 112.735,136.316 118.997,155.6 102.599,143.682 "
   style="fill:#ffffff" />
   <polygon
   id="_295822664"
   class="fil1"
   points="126.129,230.23 132.391,210.946 115.994,199.032 136.264,199.032 142.528,179.754 148.792,199.032 169.062,199.032 152.665,210.946 158.927,230.23 142.528,218.313 "
   style="fill:#ffffff" />
   <polygon
   id="_295823888"
   class="fil1"
   points="126.129,304.863 132.391,285.579 115.994,273.67 136.264,273.67 142.528,254.387 148.792,273.67 169.062,273.67 152.665,285.579 158.927,304.863 142.528,292.945 "
   style="fill:#ffffff" />
   <polygon
   id="_295823816"
   class="fil1"
   points="86.0587,379.489 92.3209,360.208 75.9213,348.294 96.1913,348.294 102.456,329.019 108.722,348.294 128.992,348.294 112.592,360.208 118.854,379.489 102.456,367.572 "
   style="fill:#ffffff" />
   <polygon
   id="_295823744"
   class="fil1"
   points="126.129,454.122 132.391,434.839 115.994,422.926 136.264,422.926 142.528,403.648 148.792,422.926 169.062,422.926 152.665,434.839 158.927,454.122 142.528,442.205 "
   style="fill:#ffffff" />
   <polygon
   id="_295823672"
   class="fil1"
   points="46.272,80.9693 52.5343,61.6878 36.137,49.7728 56.4071,49.7728 62.6705,30.4949 68.935,49.7728 89.2051,49.7728 72.8055,61.6878 79.0677,80.9693 62.6705,69.052 "
   style="fill:#ffffff" />
   <polygon
   id="_295823600"
   class="fil1"
   points="46.272,230.23 52.5343,210.946 36.137,199.032 56.4071,199.032 62.6705,179.754 68.935,199.032 89.2051,199.032 72.8055,210.946 79.0677,230.23 62.6705,218.313 "
   style="fill:#ffffff" />
   <polygon
   id="_295835624"
   class="fil1"
   points="46.272,304.863 52.5343,285.579 36.137,273.67 56.4071,273.67 62.6705,254.387 68.935,273.67 89.2051,273.67 72.8055,285.579 79.0677,304.863 62.6705,292.945 "
   style="fill:#ffffff" />
   <polygon
   id="_293562904"
   class="fil1"
   points="46.272,454.122 52.5343,434.839 36.137,422.926 56.4071,422.926 62.6705,403.648 68.935,422.926 89.2051,422.926 72.8055,434.839 79.0677,454.122 62.6705,442.205 "
   style="fill:#ffffff" />
  </g>
 </g>
</svg>